<?xml version="1.0" encoding="utf-8"?>
<!-- Generator: Adobe Illustrator 21.1.0, SVG Export Plug-In . SVG Version: 6.00 Build 0)  -->
<svg version="1.1" id="Layer_1" xmlns="http://www.w3.org/2000/svg" xmlns:xlink="http://www.w3.org/1999/xlink" x="0px" y="0px"
	 viewBox="0 0 512 512" style="enable-background:new 0 0 512 512;" xml:space="preserve">
<style type="text/css">
	.st0{display:none;}
	.st1{display:inline;fill:#4D4D4D;}
	.st2{display:inline;fill:#17CA00;}
	.st3{fill:url(#SVGID_1_);}
	.st4{fill:#FFFFFF;}
	.st5{fill:none;stroke:#FFFFFF;stroke-width:30;stroke-linecap:round;stroke-linejoin:round;stroke-miterlimit:10;}
</style>
<g id="Layer_2" class="st0">
	<rect class="st1" width="512" height="512"/>
	<circle class="st2" cx="115.5" cy="104.5" r="84.5"/>
</g>
<g id="Layer_1_1_">
	
		<radialGradient id="SVGID_1_" cx="256" cy="258" r="256" gradientTransform="matrix(1 0 0 -1 0 514)" gradientUnits="userSpaceOnUse">
		<stop  offset="0.9" style="stop-color:#000000;stop-opacity:0.3"/>
		<stop  offset="1" style="stop-color:#000000;stop-opacity:0"/>
	</radialGradient>
	<circle class="st3" cx="256" cy="256" r="256"/>
	<g>
		<path class="st4" d="M256,31C131.7,31,31,131.7,31,256s100.7,225,225,225s225-100.7,225-225S380.3,31,256,31z M256,456
			c-110.5,0-200-89.5-200-200S145.5,56,256,56s200,89.5,200,200S366.5,456,256,456z"/>
	</g>
</g>
<line class="st5" x1="256" y1="356" x2="256" y2="156"/>
<line class="st5" x1="185.3" y1="226.7" x2="256" y2="156"/>
<line class="st5" x1="256" y1="156" x2="326.7" y2="226.7"/>
</svg>
